<?xml version="1.0" standalone="no"?>
<!DOCTYPE svg PUBLIC "-//W3C//DTD SVG 20010904//EN"
 "http://www.w3.org/TR/2001/REC-SVG-20010904/DTD/svg10.dtd">
<svg version="1.0" xmlns="http://www.w3.org/2000/svg"
 width="1492.000000pt" height="1492.000000pt" viewBox="0 0 1492.000000 1492.000000"
 preserveAspectRatio="xMidYMid meet">
<metadata>
Created by potrace 1.14, written by Peter Selinger 2001-2017
</metadata>
<g transform="translate(0.000000,1492.000000) scale(0.100000,-0.100000)"
fill="#000000" stroke="none">
<path d="M7278 12145 c-2 -2 -33 -6 -70 -9 -37 -4 -80 -9 -95 -12 -148 -25
-201 -37 -353 -81 -213 -61 -504 -211 -705 -363 -94 -71 -118 -92 -225 -194
-323 -306 -566 -743 -661 -1191 -7 -33 -13 -62 -14 -65 -1 -3 -4 -27 -8 -55
-40 -273 -39 -492 4 -765 24 -153 101 -412 161 -540 11 -25 31 -69 45 -98 45
-99 177 -310 253 -406 34 -43 150 -174 192 -216 346 -352 848 -604 1323 -666
28 -3 58 -8 68 -10 10 -1 45 -4 78 -5 62 -2 91 -14 36 -15 -35 -1 -150 -13
-182 -19 -11 -2 -38 -6 -60 -9 -45 -6 -53 -8 -150 -31 -38 -9 -75 -18 -82 -19
-7 -1 -16 -5 -19 -9 -4 -4 -14 -7 -22 -7 -33 0 -227 -76 -367 -145 -536 -262
-952 -722 -1162 -1285 -13 -36 -25 -69 -27 -75 -1 -5 -12 -41 -24 -80 -21 -71
-48 -182 -56 -233 -20 -125 -18 -111 -32 -242 -7 -73 -7 -255 0 -355 32 -424
171 -818 414 -1170 109 -158 286 -350 433 -470 93 -76 119 -95 127 -95 6 0 12
-4 14 -9 4 -10 117 -83 200 -129 110 -61 146 -79 224 -111 44 -18 88 -36 99
-41 133 -56 395 -119 575 -137 143 -15 532 -7 600 12 8 3 33 7 55 10 22 3 55
9 73 14 18 5 33 10 35 10 5 -1 64 13 101 22 22 6 47 12 56 14 9 2 79 27 155
55 231 86 432 200 639 360 76 59 255 232 325 315 63 74 167 219 216 300 40 66
136 247 140 265 1 3 6 16 12 30 100 237 157 459 180 700 13 140 7 451 -11 545
-4 21 -16 103 -17 120 -1 6 -5 19 -9 31 -5 11 -11 38 -14 60 -4 21 -12 57 -18
79 -6 22 -12 42 -13 45 -16 58 -29 97 -50 150 -15 36 -28 73 -30 82 -4 18
-106 224 -144 291 -39 69 -138 212 -203 293 -150 188 -419 426 -599 529 -283
162 -470 236 -739 293 -52 11 -115 23 -140 26 -25 4 -70 10 -102 14 -31 5 -63
7 -72 6 -9 -1 -16 2 -16 7 0 5 19 9 43 10 65 1 88 4 227 28 334 58 733 235
990 439 30 24 73 57 95 75 136 107 370 377 482 557 97 157 194 373 250 555 25
84 68 272 76 340 30 229 29 509 -3 695 -5 30 -12 71 -15 90 -29 177 -132 471
-230 655 -54 100 -171 276 -246 370 -76 95 -269 289 -362 362 -252 202 -570
360 -882 438 -147 37 -167 41 -320 60 -90 11 -437 19 -447 10z m327 -4693 c-3
-3 -11 0 -18 7 -9 10 -8 11 6 5 10 -3 15 -9 12 -12z"/>
<path d="M12370 12143 c-55 -7 -246 -35 -261 -38 -75 -15 -275 -73 -364 -107
-123 -47 -300 -132 -358 -172 -21 -14 -40 -26 -43 -26 -10 0 -131 -84 -214
-148 -93 -72 -303 -277 -366 -357 -21 -27 -43 -55 -49 -61 -5 -6 -17 -22 -25
-34 -8 -12 -20 -28 -26 -34 -30 -32 -144 -227 -199 -341 -122 -253 -186 -473
-222 -765 -16 -129 -8 -498 12 -602 3 -13 7 -39 10 -59 8 -60 44 -210 72 -294
81 -249 185 -458 329 -662 246 -347 634 -655 1019 -808 39 -15 79 -31 90 -35
60 -25 268 -83 335 -94 134 -23 230 -36 263 -36 55 0 45 -20 -10 -21 -27 0
-57 -2 -68 -4 -11 -2 -39 -7 -63 -10 -170 -23 -388 -84 -572 -160 -82 -34
-305 -149 -320 -165 -3 -3 -30 -21 -60 -40 -30 -19 -57 -37 -60 -40 -3 -3 -29
-23 -58 -44 -79 -58 -125 -99 -247 -221 -157 -157 -232 -251 -341 -428 -125
-202 -252 -515 -290 -717 -25 -133 -34 -185 -41 -245 -10 -87 -10 -462 0 -530
47 -308 109 -519 222 -751 75 -154 124 -235 219 -364 95 -128 104 -138 236
-270 127 -128 144 -143 245 -217 39 -29 81 -60 95 -71 54 -40 204 -125 313
-177 138 -65 283 -117 437 -155 108 -27 135 -32 235 -46 22 -3 51 -8 65 -11
14 -3 117 -6 230 -8 252 -4 373 10 624 70 208 50 489 174 691 306 61 39 112
74 115 78 3 3 32 26 65 50 94 70 323 305 410 423 182 244 311 505 389 786 27
98 45 178 52 237 3 22 7 45 9 52 25 76 26 630 1 672 -2 3 -7 30 -10 60 -4 29
-8 56 -10 60 -3 4 -7 26 -11 50 -3 24 -10 54 -16 68 -5 13 -11 37 -14 53 -8
43 -67 215 -105 300 -69 158 -193 375 -275 479 -139 175 -351 388 -470 471
-281 196 -506 307 -787 385 -90 26 -162 42 -227 51 -19 2 -48 7 -65 10 -64 11
-171 21 -181 16 -7 -3 -7 -1 0 6 6 5 46 13 90 16 395 29 828 200 1185 469 123
93 337 306 428 427 40 52 76 100 81 106 5 6 34 53 66 105 154 255 266 556 316
849 33 194 33 550 0 740 -20 113 -22 125 -27 142 -3 9 -6 25 -8 35 -34 173
-148 458 -262 652 -54 93 -158 238 -229 321 -77 91 -281 285 -349 335 -16 11
-33 25 -40 31 -60 55 -359 226 -502 287 -78 33 -309 105 -389 121 -120 24
-127 26 -170 31 -22 3 -56 8 -75 11 -39 7 -431 12 -470 7z m80 -4685 c0 -4 -4
-8 -9 -8 -6 0 -12 4 -15 8 -3 5 1 9 9 9 8 0 15 -4 15 -9z m250 2 c-8 -5 -19
-10 -25 -10 -5 0 -3 5 5 10 8 5 20 10 25 10 6 0 3 -5 -5 -10z"/>
<path d="M2065 7443 c-130 -17 -238 -38 -350 -69 -109 -31 -252 -81 -282 -100
-13 -8 -23 -12 -23 -9 0 5 -192 -92 -264 -134 -78 -45 -215 -142 -306 -216
-51 -42 -259 -252 -301 -305 -24 -30 -47 -57 -50 -60 -19 -15 -184 -274 -223
-349 -119 -233 -217 -535 -242 -747 -3 -33 -8 -68 -11 -79 -9 -39 -10 -411 -1
-500 44 -425 206 -834 471 -1185 65 -86 271 -303 356 -374 299 -252 723 -449
1101 -510 52 -9 111 -18 130 -22 55 -9 450 -13 505 -4 28 4 73 10 100 14 28 3
60 8 71 10 12 2 37 7 55 10 19 3 61 13 94 21 33 9 70 18 82 20 73 17 278 96
400 156 122 60 363 208 406 250 8 8 37 32 65 54 153 120 371 372 495 573 72
116 187 348 201 407 2 6 6 17 9 25 35 87 99 345 112 449 4 30 9 63 12 75 9 38
12 440 3 501 -5 33 -11 80 -14 105 -3 25 -8 57 -11 73 -3 15 -7 37 -9 50 -2
12 -12 54 -21 92 -238 973 -1056 1683 -2055 1785 -114 11 -393 8 -505 -7z"/>
</g>
</svg>
